PathFileType	4	(X/Y/Z)	C:\Users\Basilio\Documents\Thesis Gigler\squatting_fais\c3dfiles\047\SLS_pre_front1\markers_experimental.trc
DataRate	CameraRate	NumFrames	NumMarkers	Units	OrigDataRate	OrigDataStartFrame	OrigNumFrames
200.000000	200.000000	4	60	mm	200.000000	1057	1209
Frame#	Time	FHD			LBHD			RBHD			C7			T10			CLAV			LSHO			LUUPA			LMUPA			LDUPA			LLEP			LRAD			LUL			LRFIN			RSHO			RUPA1			RMUPA			RDUPA			RLEP			RMEP			RRAD			RUL			RUFIN			LASI			RASI			USACR			LSACR			RSACR			LTHI1			LTHI2			LTHI3			LTHI4			LLFC			LMFC			LTIB1			LTIB2			LTIB3			LTIB4			LLMAL			LMMAL			LMT1			LMT2			LMT5			RTHI			RTHI2			RTHI3			RTHI4			RLFC			RMFC			RTIB1			RTIB2			RTIB3			RTIB4			RLMAL			RMMAL			RHEE			RMT1			RMT2			RMT5			LMEP			
		X1	Y1	Z1	X2	Y2	Z2	X3	Y3	Z3	X4	Y4	Z4	X5	Y5	Z5	X6	Y6	Z6	X7	Y7	Z7	X8	Y8	Z8	X9	Y9	Z9	X10	Y10	Z10	X11	Y11	Z11	X12	Y12	Z12	X13	Y13	Z13	X14	Y14	Z14	X15	Y15	Z15	X16	Y16	Z16	X17	Y17	Z17	X18	Y18	Z18	X19	Y19	Z19	X20	Y20	Z20	X21	Y21	Z21	X22	Y22	Z22	X23	Y23	Z23	X24	Y24	Z24	X25	Y25	Z25	X26	Y26	Z26	X27	Y27	Z27	X28	Y28	Z28	X29	Y29	Z29	X30	Y30	Z30	X31	Y31	Z31	X32	Y32	Z32	X33	Y33	Z33	X34	Y34	Z34	X35	Y35	Z35	X36	Y36	Z36	X37	Y37	Z37	X38	Y38	Z38	X39	Y39	Z39	X40	Y40	Z40	X41	Y41	Z41	X42	Y42	Z42	X43	Y43	Z43	X44	Y44	Z44	X45	Y45	Z45	X46	Y46	Z46	X47	Y47	Z47	X48	Y48	Z48	X49	Y49	Z49	X50	Y50	Z50	X51	Y51	Z51	X52	Y52	Z52	X53	Y53	Z53	X54	Y54	Z54	X55	Y55	Z55	X56	Y56	Z56	X57	Y57	Z57	X58	Y58	Z58	X59	Y59	Z59	X60	Y60	Z60	

1058	5.285	-237.0030975341797	1741.338256835938	-1061.794189453125	-412.9480895996095	1701.437255859375	-1095.164794921875	-396.0599670410157	1701.456787109375	-947.182067871094	-430.707244873047	1512.790649414063	-1032.269775390625	-410.7217712402345	1199.752563476563	-1033.025390625	-275.4504699707032	1472.667846679688	-1051.219482421875	-355.3898315429688	1510.266723632813	-1194.404174804688	-253.5763854980469	1468.126708984375	-1325.472290039063	-234.2630462646485	1512.697631835938	-1314.592529296875	-190.8678283691407	1488.790771484375	-1347.966674804688	-134.4393615722657	1521.371215820313	-1362.115356445313	128.3836975097657	1583.285034179688	-1343.492797851563	109.5475540161133	1600.375366210938	-1416.466186523438	203.3306884765626	1628.455078125	-1370.596435546875	-332.9077148437501	1512.878784179688	-903.8098754882815	-195.9662322998047	1463.9169921875	-797.190124511719	-174.8038024902344	1503.506225585938	-817.314147949219	-126.5980911254883	1474.217529296875	-795.9411621093752	-62.5043182373047	1499.718505859375	-803.4348144531252	-43.06323242187501	1439.505126953125	-855.6986083984377	191.1791687011719	1549.54638671875	-872.4376220703127	188.7948150634766	1558.915161132813	-802.4285888671877	269.7164611816407	1585.103149414063	-863.8089599609377	-213.9948883056641	989.8710937500002	-1121.04541015625	-219.5956420898438	1024.549072265625	-891.6798095703127	-406.3863525390626	1066.519653320313	-1024.98388671875	-404.8633728027345	1032.486938476563	-1049.95703125	-411.400848388672	1038.130737304688	-991.773620605469	-296.8822937011719	825.3707275390627	-1179.3564453125	-260.3083496093751	749.3881835937501	-1175.149658203125	-212.0012512207032	755.1123657226564	-1164.52978515625	-287.8838500976563	695.2575683593751	-1166.119506835938	-311.0060729980469	524.0143432617189	-1121.363037109375	-276.3388977050782	520.8948364257814	-1004.03466796875	-278.5567321777344	342.5028076171876	-1021.22705078125	-290.1249694824219	292.3377685546876	-1091.028076171875	-271.2937011718751	292.6827392578126	-1047.725952148438	-284.8298645019532	217.1417846679688	-1012.651062011719	-336.1560058593751	117.7786254882813	-1050.536987304688	-312.8584899902344	136.8572082519532	-965.764587402344	-191.3847808837891	64.29033660888673	-979.547302246094	-189.0011138916016	60.39791107177736	-1024.142333984375	-237.8248901367188	44.27814865112305	-1068.793579101563	-209.3631744384766	875.8721313476565	-788.998474121094	-142.3950653076172	873.117614746094	-789.7044067382815	-124.4765930175782	897.5307617187502	-800.2177734375002	-95.96518707275392	803.0878906250002	-787.9136352539065	22.44122123718262	718.0612182617189	-801.7825927734377	45.70573425292969	719.3847045898439	-925.2502441406252	123.4330444335938	631.2734375000001	-815.3890380859377	112.7630691528321	531.4414672851564	-769.8192138671877	149.8737487792969	552.8752441406251	-788.1516113281252	180.8843383789063	514.4227905273439	-821.2080078125002	201.8091430664063	356.6508178710938	-780.421325683594	215.6794433593751	373.7086791992188	-869.7363891601565	161.4470977783203	299.5932006835938	-827.3195800781252	361.8068237304688	355.9965209960938	-857.852966308594	365.1682434082032	367.6170349121094	-813.108581542969	332.1465148925782	331.0351867675782	-753.9941406250001	-95.66078948974611	1463.75146484375	-1319.0751953125	
1059	5.29	-237.2339782714844	1741.081909179688	-1061.8173828125	-412.7026977539064	1701.483154296875	-1095.545532226563	-395.8612060546876	1701.516235351563	-947.6383056640627	-430.6244201660157	1512.892456054688	-1032.62841796875	-410.7963867187501	1199.831665039063	-1032.982055664063	-275.4793701171876	1472.764038085938	-1051.588012695313	-355.6055603027344	1510.194458007813	-1194.734252929688	-253.8276062011719	1468.050659179688	-1325.783935546875	-234.2934570312501	1512.606567382813	-1314.82666015625	-191.0613098144532	1488.591064453125	-1348.314086914063	-134.5426025390625	1521.277221679688	-1362.45556640625	128.2004852294922	1583.118774414063	-1343.973510742188	109.2881851196289	1600.188720703125	-1417.022827148438	203.3507080078126	1628.3720703125	-1371.268310546875	-332.7752685546876	1513.075439453125	-904.0825195312502	-195.7642669677735	1463.975952148438	-797.5188598632815	-174.4163970947266	1503.67236328125	-817.662292480469	-126.6192703247071	1474.146484375	-796.0013427734377	-62.34682846069337	1499.687622070313	-803.720397949219	-43.11708450317384	1439.472290039063	-855.861022949219	191.5135345458985	1549.379150390625	-872.9763793945315	188.9232177734375	1558.726806640625	-802.9052734375002	269.9552307128907	1584.870483398438	-864.302429199219	-214.3612518310547	989.7838134765627	-1120.956176757813	-219.685775756836	1024.482177734375	-891.5621337890627	-406.5909729003907	1066.531616210938	-1024.865478515625	-404.918426513672	1032.432983398438	-1049.856323242188	-411.5083923339845	1038.1376953125	-991.5695800781252	-297.3938293457032	825.4714965820315	-1179.355102539063	-260.7754211425782	749.5119018554689	-1175.260620117188	-212.3847351074219	755.2955932617189	-1164.807373046875	-288.3495788574219	695.3433837890626	-1166.255981445313	-311.4234619140626	524.1156616210939	-1121.438842773438	-276.3061523437501	520.9047241210939	-1004.090698242188	-278.6456604003907	342.5142211914063	-1021.36376953125	-290.4436340332032	292.3608703613282	-1091.291748046875	-271.3217773437501	292.5919494628907	-1048.123779296875	-284.7736511230469	217.2025909423829	-1013.069396972656	-336.1964416503907	117.7676544189453	-1050.83203125	-312.6881103515626	137.0351715087891	-966.1038818359377	-191.4898071289063	64.34716796875001	-979.546569824219	-188.8582916259766	60.36993408203126	-1024.321044921875	-237.8812866210938	44.04891586303712	-1068.793823242188	-209.2797241210938	875.953308105469	-789.096374511719	-142.3529663085938	873.097595214844	-789.5878906250002	-124.4956817626953	897.5181884765627	-800.203796386719	-95.94738769531251	803.0796508789065	-787.975524902344	22.56196975708008	718.1039428710939	-801.8747558593752	45.61787033081055	719.3594360351564	-925.3282470703127	123.4361953735352	631.2608032226564	-815.4348144531252	112.8366012573242	531.4417114257814	-769.3330688476565	149.8563232421875	552.8616943359376	-788.2253417968752	180.8279418945313	514.4730834960939	-821.3031005859377	201.7877044677735	356.6371154785157	-780.3845214843752	215.7046508789063	373.6612854003907	-869.7404785156252	161.3922729492188	299.5230712890626	-827.253112792969	361.7415771484376	355.9032592773438	-857.9692993164065	365.1416931152344	367.6511230468751	-813.3276367187502	332.1207885742188	331.0081787109376	-754.0068359375001	-95.77807617187501	1463.504516601563	-1319.592407226563	
1060	5.295	-237.1320953369141	1741.08642578125	-1062.001342773438	-412.6324157714845	1701.581176757813	-1095.90380859375	-395.7425537109376	1701.625244140625	-948.1105957031252	-430.5910949707032	1512.94384765625	-1032.95849609375	-410.8800659179689	1199.906982421875	-1032.978271484375	-275.4665527343751	1472.853637695313	-1051.861694335938	-355.5422668457032	1510.1728515625	-1195.062255859375	-253.9674072265626	1467.983276367188	-1326.103271484375	-234.4456329345704	1512.375732421875	-1315.161743164063	-191.1238861083985	1488.4326171875	-1348.673706054688	-134.6688842773438	1521.041870117188	-1363.013305664063	128.016845703125	1582.820434570313	-1344.7587890625	109.2372817993164	1600.034790039063	-1417.568115234375	203.2014312744141	1628.250610351563	-1371.892456054688	-332.7510986328126	1513.272338867188	-904.4393310546877	-195.7409973144532	1464.055419921875	-797.9988403320315	-174.2103729248047	1503.6953125	-818.1817016601565	-126.5146408081055	1474.189086914063	-796.470642089844	-62.13848876953126	1499.826293945313	-804.266540527344	-42.85708236694337	1439.455810546875	-856.2232666015627	191.8386383056641	1549.251586914063	-873.5158691406252	189.0658874511719	1558.542358398438	-803.221130371094	270.1709289550782	1584.48486328125	-864.6530761718752	-214.6488647460938	989.848815917969	-1121.032958984375	-219.6293640136719	1024.528442382813	-891.7912597656252	-406.6862182617189	1066.4775390625	-1024.655517578125	-405.1242675781251	1032.349487304688	-1049.65625	-411.7030639648439	1038.1962890625	-991.352722167969	-297.8529357910157	825.5748291015627	-1179.349243164063	-261.2799072265626	749.6326904296876	-1175.301147460938	-212.8642120361329	755.3690795898439	-1164.954711914063	-288.9518127441407	695.4948120117189	-1166.353515625	-311.8253784179688	524.2619018554689	-1121.5029296875	-276.1792602539063	520.8716430664064	-1004.397033691406	-278.7531127929688	342.3761291503907	-1021.356079101563	-290.9833374023438	292.2236633300782	-1091.733154296875	-271.5026245117188	292.6658325195313	-1048.500366210938	-284.8804321289063	217.1898651123047	-1013.178344726563	-336.3435058593751	117.7674713134766	-1050.992919921875	-312.5354309082032	137.2188415527344	-966.591003417969	-191.5705871582032	64.37911224365236	-979.7623291015627	-188.6142883300782	60.39725875854494	-1024.496948242188	-237.9031524658204	43.82776641845704	-1068.838989257813	-209.2382812500001	875.9819335937502	-789.1175537109377	-142.2667694091797	873.0806884765627	-789.6843872070315	-124.4527435302735	897.5881347656252	-800.2219238281252	-95.84510803222658	802.986755371094	-788.028747558594	22.61566543579102	718.1582031250001	-801.9343872070315	45.74005126953126	719.3139648437501	-925.3982543945315	123.4019927978516	631.2293090820314	-815.3790283203127	112.4457321166992	531.7597045898439	-767.6893920898439	149.8657836914063	552.8708496093751	-788.164978027344	181.00048828125	514.3843383789064	-821.2800292968752	201.7578430175782	356.6062927246094	-780.3884887695315	215.5521697998047	373.5437622070313	-869.7390747070315	161.2725982666016	299.4468383789063	-827.1697998046877	361.6416625976563	355.7939453125001	-858.0593872070315	364.8665161132813	367.4696655273438	-813.1873779296877	332.1222229003907	331.0062866210938	-754.0007324218751	-95.81858825683595	1463.459350585938	-1320.206665039063	
1061	5.3	-237.6672058105469	1740.6376953125	-1061.290161132813	-412.4985351562501	1701.609130859375	-1096.304565429688	-395.6104125976564	1701.801391601563	-948.560974121094	-430.5685424804689	1513.029174804688	-1033.222412109375	-411.0104370117189	1199.905517578125	-1032.869873046875	-275.6185607910157	1472.743408203125	-1052.162109375	-356.0005493164063	1509.58935546875	-1195.016235351563	-254.0462341308594	1467.72265625	-1326.572509765625	-234.598373413086	1512.27490234375	-1315.475830078125	-191.2569122314453	1488.33740234375	-1348.926391601563	-134.7390899658203	1520.763305664063	-1363.495483398438	128.0643920898438	1582.595825195313	-1345.264038085938	109.1799011230469	1599.767944335938	-1418.1142578125	202.9647521972657	1628.083984375	-1372.344848632813	-332.7411499023438	1513.274291992188	-904.7821044921877	-195.595199584961	1464.106323242188	-798.1538085937502	-174.133056640625	1503.69580078125	-818.5769042968752	-126.3797760009766	1474.178588867188	-796.8984375000002	-62.16090393066408	1499.7822265625	-804.5098876953127	-42.81822204589844	1439.40087890625	-856.4276123046877	192.1742095947266	1549.07958984375	-874.0545043945315	189.2062683105469	1558.400390625	-803.3931884765627	270.4675598144532	1584.309692382813	-865.0886840820315	-215.2575378417969	989.832458496094	-1121.064575195313	-219.5988006591797	1024.580810546875	-891.9710693359377	-406.8336791992189	1066.46630859375	-1024.4326171875	-405.4080505371095	1032.368774414063	-1049.434814453125	-411.6228637695314	1038.132690429688	-991.185729980469	-298.3789672851563	825.6638793945315	-1179.33154296875	-261.7400207519532	749.8381958007814	-1175.384155273438	-213.3434143066407	755.5422973632814	-1165.236328125	-289.5330505371094	695.6481323242189	-1166.436157226563	-312.2880554199219	524.3817749023439	-1121.567016601563	-276.1331787109376	520.8651733398439	-1004.548156738281	-278.6269531250001	342.6724548339844	-1022.186157226563	-291.4865722656251	292.3270874023438	-1091.980834960938	-271.7046813964844	292.9453125000001	-1049.114990234375	-284.8615722656251	217.2175598144532	-1013.730224609375	-336.4977722167969	117.6655578613282	-1051.279541015625	-312.3386535644532	137.4528045654297	-966.9986572265627	-191.7771453857422	64.49194335937501	-979.8215332031252	-188.4651947021485	60.36640930175783	-1024.664672851563	-237.7304992675782	43.82722091674805	-1069.328735351563	-209.1756896972657	876.0029907226565	-789.1373291015627	-142.1712341308594	873.1535644531252	-789.772399902344	-124.4244689941407	897.6121826171877	-800.2299804687502	-95.83107757568361	802.9551391601565	-788.006286621094	22.69104766845703	718.0189208984376	-801.8167114257815	45.47773361206055	719.2994995117189	-925.5073242187502	123.4716186523438	631.1955566406251	-815.4629516601565	112.3195190429688	531.6840820312501	-767.7798461914064	149.8694000244141	552.8291625976564	-788.3135986328127	180.9518585205078	514.3893432617189	-821.3211059570315	201.7068481445313	356.6952819824219	-780.2595214843752	215.5748443603516	373.5024414062501	-869.7430419921877	160.9481353759766	299.5002441406251	-826.9251098632815	361.1138610839844	355.5724182128907	-857.6505126953127	364.7662048339844	367.3878784179688	-813.3098754882815	332.0184326171876	330.9508666992188	-754.0272216796876	-95.95098876953126	1463.201782226563	-1320.780517578125	
